<?xml version="1.0" standalone="no"?>
<!DOCTYPE svg PUBLIC "-//W3C//DTD SVG 20010904//EN"
 "http://www.w3.org/TR/2001/REC-SVG-20010904/DTD/svg10.dtd">
<svg version="1.0" xmlns="http://www.w3.org/2000/svg"
 width="900.000000pt" height="900.000000pt" viewBox="0 0 900.000000 900.000000"
 preserveAspectRatio="xMidYMid meet">
<metadata>
Created by potrace 1.11, written by Peter Selinger 2001-2013
</metadata>
<g transform="translate(0.000000,900.000000) scale(0.100000,-0.100000)"
fill="#000000" stroke="none">
<path d="M4812 5998 c-11 -29 -277 -723 -591 -1541 -314 -819 -571 -1493 -571
-1498 0 -5 69 -9 154 -9 l155 0 29 78 c166 430 1146 2991 1149 3005 5 16 -7
17 -150 17 l-156 0 -19 -52z"/>
<path d="M5755 5961 c-112 -5 -137 -9 -179 -31 -64 -33 -130 -107 -156 -176
-20 -55 -20 -63 -18 -1277 l3 -1222 23 -43 c36 -67 98 -129 161 -159 l56 -28
340 0 340 0 56 28 c66 32 132 99 162 165 20 42 22 67 25 250 l3 202 -150 0
-151 0 -2 -172 -3 -173 -279 -3 c-217 -2 -281 1 -288 10 -9 15 -11 2298 -2
2322 5 14 40 16 285 16 265 0 279 -1 289 -19 6 -11 10 -87 10 -175 l0 -156
146 0 146 0 -4 203 c-3 185 -5 206 -26 247 -48 98 -114 155 -212 184 -56 17
-285 19 -575 7z"/>
<path d="M2447 5733 c-4 -124 -7 -784 -7 -1465 l0 -1238 148 0 148 0 -4 1320
-4 1320 289 0 c211 0 292 -3 301 -12 17 -17 17 -839 0 -856 -9 -9 -82 -12
-266 -12 -199 0 -253 -3 -250 -12 3 -7 117 -403 253 -879 l249 -867 149 -7
c82 -4 152 -3 157 1 5 5 -90 337 -209 737 -138 459 -214 730 -207 732 6 2 52
5 101 8 68 2 100 9 133 26 66 34 128 97 159 160 l28 56 0 485 0 485 -28 57
c-35 71 -110 140 -183 167 -52 20 -75 21 -503 21 l-448 0 -6 -227z"/>
<path d="M6860 4846 c0 -3 151 -129 335 -281 184 -152 335 -279 335 -283 0 -4
-151 -131 -336 -282 l-336 -275 146 -3 145 -3 340 278 c187 153 339 281 338
285 -1 4 -155 134 -342 288 l-339 280 -143 0 c-79 0 -143 -2 -143 -4z"/>
<path d="M1513 4561 l-342 -279 341 -281 341 -281 144 0 144 0 -63 53 c-35 29
-185 153 -335 276 -150 122 -274 225 -277 229 -2 4 106 98 241 207 136 110
289 235 341 278 l94 77 -143 0 -144 -1 -342 -278z"/>
</g>
</svg>
